<svg xmlns="http://www.w3.org/2000/svg" viewBox="0 0 76.38 80.08"><g id="Layer_2" data-name="Layer 2"><g id="Layer_1-2" data-name="Layer 1"><path d="M29.88,43.25c3.46,0,6.51-.4,9.37.16,1.47.29,2.61,2.27,3.91,3.49-1.32,1-2.61,2.88-4,2.91-9.48.26-19,.28-28.45,0-1.37,0-2.67-2.17-4-3.33C8,45.39,9.17,43.68,10.6,43.39c2.56-.51,5.3-.17,8-.18,5.88,0,7.94-1.34,8.52-7.11C29.89,8.42,54.06.8,72.32,0c3.32-.15,4.54,1.57,3.89,4.72a11.89,11.89,0,0,1-.81,2.35C72.65,13.56,71.78,22,60.75,20l.19,1.31,4.2,3.5c-6.6,6.33-14.73,9.08-23.07,11.37l-1.09-1,11.9-18.51C47.18,16.26,34.32,30.81,29.88,43.25Z"/><path d="M24.94,80c-5.83,0-11.65.09-17.48,0-5-.11-7.31-2.4-7.38-7.41C-.1,58.22-1.15,56.23,15,56.67c9,.24,18,0,27,.07,5.61,0,8,2.28,8,7.84C50.18,77.17,51.1,80.75,35.42,80,31.93,79.81,28.43,80,24.94,80Z"/></g></g></svg>